<svg xmlns="http://www.w3.org/2000/svg" xmlns:xlink="http://www.w3.org/1999/xlink" viewBox="0 0 1601 1601"><defs><style>.cls-1{isolation:isolate;}.cls-2{fill:url(#linear-gradient);}.cls-3{opacity:0.33;}.cls-4{opacity:0.7;mix-blend-mode:multiply;}.cls-5{fill:#1b1f3c;}.cls-6{fill:#fff;}</style><linearGradient id="linear-gradient" x1="800.5" y1="1582" x2="800.5" y2="19" gradientUnits="userSpaceOnUse"><stop offset="0" stop-color="#117baf"/><stop offset="0.5" stop-color="#152b5d"/><stop offset="1" stop-color="#1b1f3a"/></linearGradient></defs><title>Asset 2</title><g class="cls-1"><g id="Layer_2" data-name="Layer 2"><g id="Layer_2-2" data-name="Layer 2"><path id="ELLIPSE" class="cls-2" d="M1582,800.5c0,430.92-350.58,781.5-781.5,781.5S19,1231.42,19,800.5,369.58,19,800.5,19,1582,369.58,1582,800.5Z"/><g class="cls-3"><g class="cls-4"><path class="cls-5" d="M1161,545c0-3-1-27-1-27l25-25h4l6-5,1-5,197.92-200.95-23-17.78q-7.74-7.79-14.74-16L1162,449h-6l-3,4v4l-6,9h-4l-24,25a53.85,53.85,0,0,0-14-4,28.27,28.27,0,0,0-13.11,1.46L905,321l-11,12,5,5-58,60-5-4-12,13,24,24-18,18,1,5L129.16,1191a272.8,272.8,0,0,1,14.77,31.28,273.39,273.39,0,0,1,50.27,72.15c3.07,1.64,6.14,3.32,9.18,5.08l55.42,42.82a275.29,275.29,0,0,1,48.34,65.36l17.19,13.28a282.17,282.17,0,0,1,29,34.2,279.36,279.36,0,0,1,49.25,22.59l26.28,20.3a276.56,276.56,0,0,1,62.84,26.88L506.11,1536,1225,807l3,3,28-3,7,4h14l9-14-4-5,63-60,5,4,7-10L1159.44,549S1161,548,1161,545ZM861.42,827.5c-17.14,0-29.84-14-30.58-30.58s14.58-30.58,30.58-30.58c17.14,0,29.84,14,30.58,30.58S877.42,827.5,861.42,827.5Zm99.54-102c-17.14,0-29.84-14-30.58-30.58S945,664.32,961,664.32c17.14,0,29.84,14,30.58,30.58S977,725.48,961,725.48Z"/></g><path class="cls-6" d="M1145,529c0-3-1-27-1-27l25-25h4l6-5,1-5,197.92-200.95-23-17.78q-7.74-7.79-14.74-16L1146,433h-6l-3,4v4l-6,9h-4l-24,25a53.85,53.85,0,0,0-14-4,28.27,28.27,0,0,0-13.11,1.46L889,305l-11,12,5,5-58,60-5-4-12,13,24,24-18,18,1,5L113.16,1175a272.8,272.8,0,0,1,14.77,31.28,273.39,273.39,0,0,1,50.27,72.15c3.07,1.64,6.14,3.32,9.18,5.08l55.42,42.82a275.29,275.29,0,0,1,48.34,65.36l17.19,13.28a282.17,282.17,0,0,1,29,34.2,279.36,279.36,0,0,1,49.25,22.59l26.28,20.3a276.56,276.56,0,0,1,62.84,26.88L490.11,1520,1209,791l3,3,28-3,7,4h14l9-14-4-5,63-60,5,4,7-10L1143.44,533S1145,532,1145,529ZM845.42,811.5c-17.14,0-29.84-14-30.58-30.58s14.58-30.58,30.58-30.58c17.14,0,29.84,14,30.58,30.58S861.42,811.5,845.42,811.5Zm99.54-102c-17.14,0-29.84-14-30.58-30.58S929,648.32,945,648.32c17.14,0,29.84,14,30.58,30.58S961,709.48,945,709.48Z"/></g><g class="cls-4"><polygon class="cls-5" points="207 604.63 277.92 481 830.9 481 830.9 604.63 713.02 810.68 787.77 810.68 716.85 934.31 642.1 934.31 476.3 1222.78 333.5 1222.78 498.82 934.79 311.94 934.79 383.82 810.2 569.74 810.2 688.58 605.11 207 604.63"/></g><polygon class="cls-6" points="177 567.63 247.92 444 800.9 444 800.9 567.63 683.02 773.68 757.77 773.68 686.85 897.31 612.1 897.31 446.3 1185.78 303.5 1185.78 468.82 897.79 281.94 897.79 353.82 773.2 539.74 773.2 658.58 568.11 177 567.63"/><g class="cls-4"><polygon class="cls-5" points="1403.04 1222.78 1404 481.96 1279.41 481.96 1279.41 810.68 976.57 810.68 976.57 481 852.94 481 852.94 811.64 811.73 811.64 740.81 935.27 852.94 935.27 852.94 1222.78 976.57 1222.78 976.57 934.31 1279.41 934.31 1279.41 1222.78 1403.04 1222.78"/></g><g id="Layer_2-3" data-name="Layer 2"><g id="Layer_2-2-2" data-name="Layer 2-2"><polygon class="cls-6" points="1373.04 1185.78 1374 444.96 1249.41 444.96 1249.41 773.68 946.57 773.68 946.57 444 822.94 444 822.94 774.64 781.73 774.64 710.81 898.27 822.94 898.27 822.94 1185.78 946.57 1185.78 946.57 897.31 1249.41 897.31 1249.41 1185.78 1373.04 1185.78"/></g></g><path class="cls-6" d="M800.5,1601C359.1,1601,0,1241.9,0,800.5S359.1,0,800.5,0,1601,359.1,1601,800.5,1241.9,1601,800.5,1601Zm0-1563C380.06,38,38,380.06,38,800.5S380.06,1563,800.5,1563,1563,1220.94,1563,800.5,1220.94,38,800.5,38Z"/></g></g></g></svg>